{
    "asset" : {
        "generator" : "Khronos Blender glTF 2.0 I/O",
        "version" : "2.0"
    },
    "scene" : 0,
    "scenes" : [
        {
            "name" : "Scene",
            "nodes" : [
                0
            ]
        }
    ],
    "nodes" : [
        {
            "mesh" : 0,
            "name" : "letter_recto"
        }
    ],
    "materials" : [
        {
            "name" : "letter_recto.001",
            "pbrMetallicRoughness" : {
                "baseColorTexture" : {
                    "index" : 0,
                    "texCoord" : 0
                },
                "metallicFactor" : 1,
                "roughnessFactor" : 1
            }
        },
        {
            "name" : "letter_verso.001",
            "pbrMetallicRoughness" : {
                "baseColorTexture" : {
                    "index" : 1,
                    "texCoord" : 0
                },
                "metallicFactor" : 1,
                "roughnessFactor" : 1
            }
        }
    ],
    "meshes" : [
        {
            "name" : "letter_recto.001",
            "primitives" : [
                {
                    "attributes" : {
                        "POSITION" : 0,
                        "NORMAL" : 1,
                        "TEXCOORD_0" : 2
                    },
                    "indices" : 3,
                    "material" : 0
                },
                {
                    "attributes" : {
                        "POSITION" : 4,
                        "NORMAL" : 5,
                        "TEXCOORD_0" : 6
                    },
                    "indices" : 7,
                    "material" : 1
                }
            ]
        }
    ],
    "textures" : [
        {
            "source" : 0
        },
        {
            "source" : 1
        }
    ],
    "images" : [
        {
            "bufferView" : 4,
            "mimeType" : "image/png",
            "name" : "Image_0"
        },
        {
            "bufferView" : 9,
            "mimeType" : "image/png",
            "name" : "Image_1"
        }
    ],
    "accessors" : [
        {
            "bufferView" : 0,
            "componentType" : 5126,
            "count" : 100,
            "max" : [
                0.0163247212767601,
                0.1210613027215004,
                0.16004996001720428
            ],
            "min" : [
                -0.01887625642120838,
                -0.10508202016353607,
                -0.1601095348596573
            ],
            "type" : "VEC3"
        },
        {
            "bufferView" : 1,
            "componentType" : 5126,
            "count" : 100,
            "type" : "VEC3"
        },
        {
            "bufferView" : 2,
            "componentType" : 5126,
            "count" : 100,
            "type" : "VEC2"
        },
        {
            "bufferView" : 3,
            "componentType" : 5123,
            "count" : 120,
            "type" : "SCALAR"
        },
        {
            "bufferView" : 5,
            "componentType" : 5126,
            "count" : 40,
            "max" : [
                0.017503120005130768,
                0.11980073899030685,
                0.16004996001720428
            ],
            "min" : [
                -0.01770259067416191,
                -0.10508202016353607,
                -0.1601095348596573
            ],
            "type" : "VEC3"
        },
        {
            "bufferView" : 6,
            "componentType" : 5126,
            "count" : 40,
            "type" : "VEC3"
        },
        {
            "bufferView" : 7,
            "componentType" : 5126,
            "count" : 40,
            "type" : "VEC2"
        },
        {
            "bufferView" : 8,
            "componentType" : 5123,
            "count" : 48,
            "type" : "SCALAR"
        }
    ],
    "bufferViews" : [
        {
            "buffer" : 0,
            "byteLength" : 1200,
            "byteOffset" : 0
        },
        {
            "buffer" : 0,
            "byteLength" : 1200,
            "byteOffset" : 1200
        },
        {
            "buffer" : 0,
            "byteLength" : 800,
            "byteOffset" : 2400
        },
        {
            "buffer" : 0,
            "byteLength" : 240,
            "byteOffset" : 3200
        },
        {
            "buffer" : 0,
            "byteLength" : 144629,
            "byteOffset" : 3440
        },
        {
            "buffer" : 0,
            "byteLength" : 480,
            "byteOffset" : 148072
        },
        {
            "buffer" : 0,
            "byteLength" : 480,
            "byteOffset" : 148552
        },
        {
            "buffer" : 0,
            "byteLength" : 320,
            "byteOffset" : 149032
        },
        {
            "buffer" : 0,
            "byteLength" : 96,
            "byteOffset" : 149352
        },
        {
            "buffer" : 0,
            "byteLength" : 237221,
            "byteOffset" : 149448
        }
    ],
    "buffers" : [
        {
            "byteLength" : 386672,
            "uri" : "data:application/octet-stream;base64,"
        }
    ]
}
