{
    "asset" : {
        "generator" : "Khronos Blender glTF 2.0 I/O",
        "version" : "2.0"
    },
    "scene" : 0,
    "scenes" : [
        {
            "name" : "Scene",
            "nodes" : [
                0
            ]
        }
    ],
    "nodes" : [
        {
            "mesh" : 0,
            "name" : "cat-2-optimised.002"
        }
    ],
    "materials" : [
        {
            "name" : "normals.003",
            "normalTexture" : {
                "index" : 0,
                "texCoord" : 0
            },
            "pbrMetallicRoughness" : {
                "baseColorFactor" : [
                    0.6399999856948853,
                    0.6399999856948853,
                    0.6399999856948853,
                    1
                ],
                "metallicFactor" : 0,
                "roughnessFactor" : 0.6732679605484009
            }
        }
    ],
    "meshes" : [
        {
            "name" : "cat-2-optimised.003",
            "primitives" : [
                {
                    "attributes" : {
                        "POSITION" : 0,
                        "NORMAL" : 1,
                        "TEXCOORD_0" : 2
                    },
                    "indices" : 3,
                    "material" : 0
                }
            ]
        }
    ],
    "textures" : [
        {
            "source" : 0
        }
    ],
    "images" : [
        {
            "bufferView" : 4,
            "mimeType" : "image/png",
            "name" : "Image_0.001"
        }
    ],
    "accessors" : [
        {
            "bufferView" : 0,
            "componentType" : 5126,
            "count" : 9950,
            "max" : [
                0.08418436348438263,
                0.19219490885734558,
                0.03347393497824669
            ],
            "min" : [
                -0.11899393796920776,
                -0.0023034701589494944,
                -0.06704121083021164
            ],
            "type" : "VEC3"
        },
        {
            "bufferView" : 1,
            "componentType" : 5126,
            "count" : 9950,
            "type" : "VEC3"
        },
        {
            "bufferView" : 2,
            "componentType" : 5126,
            "count" : 9950,
            "type" : "VEC2"
        },
        {
            "bufferView" : 3,
            "componentType" : 5123,
            "count" : 55575,
            "type" : "SCALAR"
        }
    ],
    "bufferViews" : [
        {
            "buffer" : 0,
            "byteLength" : 119400,
            "byteOffset" : 0
        },
        {
            "buffer" : 0,
            "byteLength" : 119400,
            "byteOffset" : 119400
        },
        {
            "buffer" : 0,
            "byteLength" : 79600,
            "byteOffset" : 238800
        },
        {
            "buffer" : 0,
            "byteLength" : 111150,
            "byteOffset" : 318400
        },
        {
            "buffer" : 0,
            "byteLength" : 940506,
            "byteOffset" : 429552
        }
    ],
    "buffers" : [
        {
            "byteLength" : 1370060,
            "uri" : "data:application/octet-stream;base64,"
        }
    ]
}
