{
    "asset" : {
        "generator" : "Khronos Blender glTF 2.0 I/O",
        "version" : "2.0"
    },
    "scene" : 0,
    "scenes" : [
        {
            "name" : "Scene",
            "nodes" : [
                0
            ]
        }
    ],
    "nodes" : [
        {
            "mesh" : 0,
            "name" : "cat-1-optimised.000"
        }
    ],
    "materials" : [
        {
            "name" : "normals_cat_2.001",
            "normalTexture" : {
                "index" : 0,
                "texCoord" : 0
            },
            "pbrMetallicRoughness" : {
                "baseColorFactor" : [
                    0.6399999856948853,
                    0.6399999856948853,
                    0.6399999856948853,
                    1
                ],
                "metallicFactor" : 0,
                "roughnessFactor" : 0.6732679605484009
            }
        }
    ],
    "meshes" : [
        {
            "name" : "cat-1-optimised.000",
            "primitives" : [
                {
                    "attributes" : {
                        "POSITION" : 0,
                        "NORMAL" : 1,
                        "TEXCOORD_0" : 2
                    },
                    "indices" : 3,
                    "material" : 0
                }
            ]
        }
    ],
    "textures" : [
        {
            "source" : 0
        }
    ],
    "images" : [
        {
            "bufferView" : 4,
            "mimeType" : "image/png",
            "name" : "Image_0.002"
        }
    ],
    "accessors" : [
        {
            "bufferView" : 0,
            "componentType" : 5126,
            "count" : 10129,
            "max" : [
                0.049586374312639236,
                0.2090514451265335,
                0.08547880500555038
            ],
            "min" : [
                -0.05157430097460747,
                8.425184205407277e-05,
                -0.07558931410312653
            ],
            "type" : "VEC3"
        },
        {
            "bufferView" : 1,
            "componentType" : 5126,
            "count" : 10129,
            "type" : "VEC3"
        },
        {
            "bufferView" : 2,
            "componentType" : 5126,
            "count" : 10129,
            "type" : "VEC2"
        },
        {
            "bufferView" : 3,
            "componentType" : 5123,
            "count" : 57966,
            "type" : "SCALAR"
        }
    ],
    "bufferViews" : [
        {
            "buffer" : 0,
            "byteLength" : 121548,
            "byteOffset" : 0
        },
        {
            "buffer" : 0,
            "byteLength" : 121548,
            "byteOffset" : 121548
        },
        {
            "buffer" : 0,
            "byteLength" : 81032,
            "byteOffset" : 243096
        },
        {
            "buffer" : 0,
            "byteLength" : 115932,
            "byteOffset" : 324128
        },
        {
            "buffer" : 0,
            "byteLength" : 902595,
            "byteOffset" : 440060
        }
    ],
    "buffers" : [
        {
            "byteLength" : 1342656,
            "uri" : "data:application/octet-stream;base64,"
        }
    ]
}
