{
    "asset" : {
        "generator" : "Khronos Blender glTF 2.0 I/O",
        "version" : "2.0"
    },
    "scene" : 0,
    "scenes" : [
        {
            "name" : "Scene",
            "nodes" : [
                0
            ]
        }
    ],
    "nodes" : [
        {
            "mesh" : 0,
            "name" : "cat-1-optimised.000",
            "rotation" : [
                0.7071068286895752,
                0,
                0,
                0.7071067094802856
            ],
            "scale" : [
                0.044299498200416565,
                0.044299498200416565,
                0.044299498200416565
            ],
            "translation" : [
                0,
                0.0020726919174194336,
                0
            ]
        }
    ],
    "materials" : [
        {
            "name" : "normals_cat_2.001",
            "normalTexture" : {
                "index" : 0,
                "texCoord" : 0
            },
            "pbrMetallicRoughness" : {
                "baseColorFactor" : [
                    0.6399999856948853,
                    0.6399999856948853,
                    0.6399999856948853,
                    1
                ],
                "metallicFactor" : 0,
                "roughnessFactor" : 0.6732679605484009
            }
        }
    ],
    "meshes" : [
        {
            "name" : "cat-1-optimised.000",
            "primitives" : [
                {
                    "attributes" : {
                        "POSITION" : 0,
                        "NORMAL" : 1,
                        "TEXCOORD_0" : 2
                    },
                    "indices" : 3,
                    "material" : 0
                }
            ]
        }
    ],
    "textures" : [
        {
            "source" : 0
        }
    ],
    "images" : [
        {
            "bufferView" : 4,
            "mimeType" : "image/png",
            "name" : "cat1_normals.png"
        }
    ],
    "accessors" : [
        {
            "bufferView" : 0,
            "componentType" : 5126,
            "count" : 10101,
            "max" : [
                0.038589999079704285,
                0.02520499937236309,
                0.046744998544454575
            ],
            "min" : [
                -0.044061001390218735,
                -0.026910999789834023,
                -0.06029000133275986
            ],
            "type" : "VEC3"
        },
        {
            "bufferView" : 1,
            "componentType" : 5126,
            "count" : 10101,
            "type" : "VEC3"
        },
        {
            "bufferView" : 2,
            "componentType" : 5126,
            "count" : 10101,
            "type" : "VEC2"
        },
        {
            "bufferView" : 3,
            "componentType" : 5123,
            "count" : 57966,
            "type" : "SCALAR"
        }
    ],
    "bufferViews" : [
        {
            "buffer" : 0,
            "byteLength" : 121212,
            "byteOffset" : 0
        },
        {
            "buffer" : 0,
            "byteLength" : 121212,
            "byteOffset" : 121212
        },
        {
            "buffer" : 0,
            "byteLength" : 80808,
            "byteOffset" : 242424
        },
        {
            "buffer" : 0,
            "byteLength" : 115932,
            "byteOffset" : 323232
        },
        {
            "buffer" : 0,
            "byteLength" : 902595,
            "byteOffset" : 439164
        }
    ],
    "buffers" : [
        {
            "byteLength" : 1341760,
            "uri" : "data:application/octet-stream;base64,"
        }
    ]
}
