{
    "accessors" : [
        {
            "bufferView" : 0,
            "componentType" : 5126,
            "count" : 80,
            "type" : "VEC3"
        },
        {
            "bufferView" : 1,
            "componentType" : 5126,
            "count" : 80,
            "type" : "VEC2"
        },
        {
            "bufferView" : 2,
            "componentType" : 5126,
            "count" : 80,
            "max" : [
                0.05287768319249153,
                0.007590613793581724,
                0.07441947609186172
            ],
            "min" : [
                -0.05227365344762802,
                -0.008777023293077946,
                -0.07444717735052109
            ],
            "type" : "VEC3"
        },
        {
            "bufferView" : 3,
            "componentType" : 5123,
            "count" : 120,
            "type" : "SCALAR"
        },
        {
            "bufferView" : 5,
            "componentType" : 5126,
            "count" : 32,
            "type" : "VEC3"
        },
        {
            "bufferView" : 6,
            "componentType" : 5126,
            "count" : 32,
            "type" : "VEC2"
        },
        {
            "bufferView" : 7,
            "componentType" : 5126,
            "count" : 32,
            "max" : [
                0.05287768319249153,
                0.00813854206353426,
                0.07441947609186172
            ],
            "min" : [
                -0.05168751999735832,
                -0.008231296204030514,
                -0.07444717735052109
            ],
            "type" : "VEC3"
        },
        {
            "bufferView" : 8,
            "componentType" : 5123,
            "count" : 48,
            "type" : "SCALAR"
        }
    ],
    "asset" : {
        "generator" : "Khronos Blender glTF 2.0 I/O",
        "version" : "2.0"
    },
    "bufferViews" : [
        {
            "buffer" : 0,
            "byteLength" : 960,
            "byteOffset" : 0
        },
        {
            "buffer" : 0,
            "byteLength" : 640,
            "byteOffset" : 960
        },
        {
            "buffer" : 0,
            "byteLength" : 960,
            "byteOffset" : 1600
        },
        {
            "buffer" : 0,
            "byteLength" : 240,
            "byteOffset" : 2560
        },
        {
            "buffer" : 0,
            "byteLength" : 144629,
            "byteOffset" : 2800
        },
        {
            "buffer" : 0,
            "byteLength" : 384,
            "byteOffset" : 147432
        },
        {
            "buffer" : 0,
            "byteLength" : 256,
            "byteOffset" : 147816
        },
        {
            "buffer" : 0,
            "byteLength" : 384,
            "byteOffset" : 148072
        },
        {
            "buffer" : 0,
            "byteLength" : 96,
            "byteOffset" : 148456
        },
        {
            "buffer" : 0,
            "byteLength" : 237221,
            "byteOffset" : 148552
        }
    ],
    "buffers" : [
        {
            "byteLength" : 385776,
            "uri" : "data:application/octet-stream;base64,"
        }
    ],
    "extensions" : {},
    "images" : [
        {
            "bufferView" : 4,
            "mimeType" : "image/png",
            "name" : "letter_recto"
        },
        {
            "bufferView" : 9,
            "mimeType" : "image/png",
            "name" : "letter_verso"
        }
    ],
    "materials" : [
        {
            "name" : "letter_recto",
            "pbrMetallicRoughness" : {
                "baseColorTexture" : {
                    "index" : 0,
                    "texCoord" : 0
                }
            }
        },
        {
            "name" : "letter_verso",
            "pbrMetallicRoughness" : {
                "baseColorTexture" : {
                    "index" : 1,
                    "texCoord" : 0
                }
            }
        }
    ],
    "meshes" : [
        {
            "name" : "letter_recto",
            "primitives" : [
                {
                    "attributes" : {
                        "NORMAL" : 0,
                        "POSITION" : 2,
                        "TEXCOORD_0" : 1
                    },
                    "indices" : 3,
                    "material" : 0
                },
                {
                    "attributes" : {
                        "NORMAL" : 4,
                        "POSITION" : 6,
                        "TEXCOORD_0" : 5
                    },
                    "indices" : 7,
                    "material" : 1
                }
            ]
        }
    ],
    "nodes" : [
        {
            "mesh" : 0,
            "name" : "letter_recto",
            "rotation" : [
                0,
                0,
                -0.7071068286895752,
                0.7071068286895752
            ]
        }
    ],
    "samplers" : [
        {
            "magFilter" : 9729,
            "minFilter" : 9986,
            "wrapS" : 33071,
            "wrapT" : 33071
        },
        {
            "magFilter" : 9729,
            "minFilter" : 9986,
            "wrapS" : 33071,
            "wrapT" : 33071
        }
    ],
    "scene" : 0,
    "scenes" : [
        {
            "name" : "Scene",
            "nodes" : [
                0
            ]
        }
    ],
    "textures" : [
        {
            "sampler" : 0,
            "source" : 0
        },
        {
            "sampler" : 1,
            "source" : 1
        }
    ]
}
