{
    "asset" : {
        "generator" : "Khronos Blender glTF 2.0 I/O",
        "version" : "2.0"
    },
    "scene" : 0,
    "scenes" : [
        {
            "name" : "Scene",
            "nodes" : [
                0
            ]
        }
    ],
    "nodes" : [
        {
            "mesh" : 0,
            "name" : "homeless-man-lo"
        }
    ],
    "materials" : [
        {
            "name" : "Material.001",
            "normalTexture" : {
                "index" : 0,
                "texCoord" : 0
            },
            "pbrMetallicRoughness" : {
                "baseColorFactor" : [
                    0.5976641178131104,
                    0.6318119764328003,
                    0.659736156463623,
                    1
                ],
                "metallicFactor" : 0,
                "roughnessFactor" : 0.5
            }
        }
    ],
    "meshes" : [
        {
            "name" : "homeless-man-lo",
            "primitives" : [
                {
                    "attributes" : {
                        "POSITION" : 0,
                        "NORMAL" : 1,
                        "TEXCOORD_0" : 2
                    },
                    "indices" : 3,
                    "material" : 0
                }
            ]
        }
    ],
    "textures" : [
        {
            "source" : 0
        }
    ],
    "images" : [
        {
            "bufferView" : 4,
            "mimeType" : "image/png",
            "name" : "homeless-man-lo_DefaultMaterial_Normal.png"
        }
    ],
    "accessors" : [
        {
            "bufferView" : 0,
            "componentType" : 5126,
            "count" : 4811,
            "max" : [
                0.08052446693181992,
                0.010450529865920544,
                0.03191613405942917
            ],
            "min" : [
                -0.06792803108692169,
                -0.007559285499155521,
                -0.03804964944720268
            ],
            "type" : "VEC3"
        },
        {
            "bufferView" : 1,
            "componentType" : 5126,
            "count" : 4811,
            "type" : "VEC3"
        },
        {
            "bufferView" : 2,
            "componentType" : 5126,
            "count" : 4811,
            "type" : "VEC2"
        },
        {
            "bufferView" : 3,
            "componentType" : 5123,
            "count" : 23388,
            "type" : "SCALAR"
        }
    ],
    "bufferViews" : [
        {
            "buffer" : 0,
            "byteLength" : 57732,
            "byteOffset" : 0
        },
        {
            "buffer" : 0,
            "byteLength" : 57732,
            "byteOffset" : 57732
        },
        {
            "buffer" : 0,
            "byteLength" : 38488,
            "byteOffset" : 115464
        },
        {
            "buffer" : 0,
            "byteLength" : 46776,
            "byteOffset" : 153952
        },
        {
            "buffer" : 0,
            "byteLength" : 1729266,
            "byteOffset" : 200728
        }
    ],
    "buffers" : [
        {
            "byteLength" : 1929996,
            "uri" : "data:application/octet-stream;base64,"
        }
    ]
}
