{
    "asset" : {
        "generator" : "Khronos Blender glTF 2.0 I/O",
        "version" : "2.0"
    },
    "scene" : 0,
    "scenes" : [
        {
            "name" : "Scene",
            "nodes" : [
                0
            ]
        }
    ],
    "nodes" : [
        {
            "mesh" : 0,
            "name" : "homeless-man-lo.001"
        }
    ],
    "materials" : [
        {
            "name" : "normals",
            "normalTexture" : {
                "index" : 0,
                "texCoord" : 0
            },
            "pbrMetallicRoughness" : {
                "baseColorFactor" : [
                    0.6399999856948853,
                    0.6399999856948853,
                    0.6399999856948853,
                    1
                ],
                "metallicFactor" : 0,
                "roughnessFactor" : 0.6008870005607605
            }
        }
    ],
    "meshes" : [
        {
            "name" : "homeless-man-lo.001",
            "primitives" : [
                {
                    "attributes" : {
                        "POSITION" : 0,
                        "NORMAL" : 1,
                        "TEXCOORD_0" : 2
                    },
                    "indices" : 3,
                    "material" : 0
                }
            ]
        }
    ],
    "textures" : [
        {
            "source" : 0
        }
    ],
    "images" : [
        {
            "bufferView" : 4,
            "mimeType" : "image/png",
            "name" : "homeless-man-lo_DefaultMaterial_Normal_painted.png"
        }
    ],
    "accessors" : [
        {
            "bufferView" : 0,
            "componentType" : 5126,
            "count" : 4811,
            "max" : [
                0.003457896877080202,
                0.0011297555174678564,
                0.006574819330126047
            ],
            "min" : [
                -0.0025879780296236277,
                -0.0005278266035020351,
                -0.005542932078242302
            ],
            "type" : "VEC3"
        },
        {
            "bufferView" : 1,
            "componentType" : 5126,
            "count" : 4811,
            "type" : "VEC3"
        },
        {
            "bufferView" : 2,
            "componentType" : 5126,
            "count" : 4811,
            "type" : "VEC2"
        },
        {
            "bufferView" : 3,
            "componentType" : 5123,
            "count" : 23388,
            "type" : "SCALAR"
        }
    ],
    "bufferViews" : [
        {
            "buffer" : 0,
            "byteLength" : 57732,
            "byteOffset" : 0
        },
        {
            "buffer" : 0,
            "byteLength" : 57732,
            "byteOffset" : 57732
        },
        {
            "buffer" : 0,
            "byteLength" : 38488,
            "byteOffset" : 115464
        },
        {
            "buffer" : 0,
            "byteLength" : 46776,
            "byteOffset" : 153952
        },
        {
            "buffer" : 0,
            "byteLength" : 1666899,
            "byteOffset" : 200728
        }
    ],
    "buffers" : [
        {
            "byteLength" : 1867628,
            "uri" : "data:application/octet-stream;base64,"
        }
    ]
}
