{
    "accessors" : [
        {
            "bufferView" : 0,
            "componentType" : 5126,
            "count" : 896,
            "type" : "VEC3"
        },
        {
            "bufferView" : 1,
            "componentType" : 5126,
            "count" : 896,
            "type" : "VEC2"
        },
        {
            "bufferView" : 2,
            "componentType" : 5126,
            "count" : 896,
            "max" : [
                1,
                5.707976341247559,
                1
            ],
            "min" : [
                -1,
                0,
                -1
            ],
            "type" : "VEC3"
        },
        {
            "bufferView" : 3,
            "componentType" : 5123,
            "count" : 2196,
            "type" : "SCALAR"
        },
        {
            "bufferView" : 5,
            "componentType" : 5126,
            "count" : 44,
            "type" : "VEC3"
        },
        {
            "bufferView" : 6,
            "componentType" : 5126,
            "count" : 44,
            "type" : "VEC2"
        },
        {
            "bufferView" : 7,
            "componentType" : 5126,
            "count" : 44,
            "max" : [
                1.6384249925613403,
                7.361416339874268,
                0.11460460722446442
            ],
            "min" : [
                -1.6384460926055908,
                5.062867164611816,
                -0.1216600090265274
            ],
            "type" : "VEC3"
        },
        {
            "bufferView" : 8,
            "componentType" : 5123,
            "count" : 108,
            "type" : "SCALAR"
        },
        {
            "bufferView" : 9,
            "componentType" : 5126,
            "count" : 30,
            "type" : "VEC3"
        },
        {
            "bufferView" : 10,
            "componentType" : 5126,
            "count" : 30,
            "type" : "VEC2"
        },
        {
            "bufferView" : 11,
            "componentType" : 5126,
            "count" : 30,
            "max" : [
                1.6318830251693726,
                7.361416339874268,
                0.11460460722446442
            ],
            "min" : [
                -1.6384460926055908,
                5.070941925048828,
                0.07006078213453293
            ],
            "type" : "VEC3"
        },
        {
            "bufferView" : 12,
            "componentType" : 5123,
            "count" : 120,
            "type" : "SCALAR"
        },
        {
            "bufferView" : 14,
            "componentType" : 5126,
            "count" : 30,
            "type" : "VEC3"
        },
        {
            "bufferView" : 15,
            "componentType" : 5126,
            "count" : 30,
            "type" : "VEC2"
        },
        {
            "bufferView" : 16,
            "componentType" : 5126,
            "count" : 30,
            "max" : [
                1.6384249925613403,
                7.353342056274414,
                -0.07021626830101013
            ],
            "min" : [
                -1.6318618059158325,
                5.062867164611816,
                -0.1216600090265274
            ],
            "type" : "VEC3"
        },
        {
            "bufferView" : 17,
            "componentType" : 5123,
            "count" : 120,
            "type" : "SCALAR"
        }
    ],
    "asset" : {
        "generator" : "Khronos Blender glTF 2.0 I/O",
        "version" : "2.0"
    },
    "bufferViews" : [
        {
            "buffer" : 0,
            "byteLength" : 10752,
            "byteOffset" : 0
        },
        {
            "buffer" : 0,
            "byteLength" : 7168,
            "byteOffset" : 10752
        },
        {
            "buffer" : 0,
            "byteLength" : 10752,
            "byteOffset" : 17920
        },
        {
            "buffer" : 0,
            "byteLength" : 4392,
            "byteOffset" : 28672
        },
        {
            "buffer" : 0,
            "byteLength" : 89642,
            "byteOffset" : 33064
        },
        {
            "buffer" : 0,
            "byteLength" : 528,
            "byteOffset" : 122708
        },
        {
            "buffer" : 0,
            "byteLength" : 352,
            "byteOffset" : 123236
        },
        {
            "buffer" : 0,
            "byteLength" : 528,
            "byteOffset" : 123588
        },
        {
            "buffer" : 0,
            "byteLength" : 216,
            "byteOffset" : 124116
        },
        {
            "buffer" : 0,
            "byteLength" : 360,
            "byteOffset" : 124332
        },
        {
            "buffer" : 0,
            "byteLength" : 240,
            "byteOffset" : 124692
        },
        {
            "buffer" : 0,
            "byteLength" : 360,
            "byteOffset" : 124932
        },
        {
            "buffer" : 0,
            "byteLength" : 240,
            "byteOffset" : 125292
        },
        {
            "buffer" : 0,
            "byteLength" : 357841,
            "byteOffset" : 125532
        },
        {
            "buffer" : 0,
            "byteLength" : 360,
            "byteOffset" : 483376
        },
        {
            "buffer" : 0,
            "byteLength" : 240,
            "byteOffset" : 483736
        },
        {
            "buffer" : 0,
            "byteLength" : 360,
            "byteOffset" : 483976
        },
        {
            "buffer" : 0,
            "byteLength" : 240,
            "byteOffset" : 484336
        },
        {
            "buffer" : 0,
            "byteLength" : 196667,
            "byteOffset" : 484576
        }
    ],
    "buffers" : [
        {
            "byteLength" : 681244,
            "uri" : "data:application/octet-stream;base64,"
        }
    ],
    "extensions" : {},
    "images" : [
        {
            "bufferView" : 4,
            "mimeType" : "image/png",
            "name" : "Texture.001"
        },
        {
            "bufferView" : 13,
            "mimeType" : "image/png",
            "name" : "sign-verso"
        },
        {
            "bufferView" : 18,
            "mimeType" : "image/png",
            "name" : "sign-recto"
        }
    ],
    "materials" : [
        {
            "name" : "wood.001",
            "pbrMetallicRoughness" : {
                "baseColorTexture" : {
                    "index" : 0,
                    "texCoord" : 0
                }
            }
        },
        {
            "name" : "edges",
            "pbrMetallicRoughness" : {}
        },
        {
            "name" : "sign-verso",
            "pbrMetallicRoughness" : {
                "baseColorTexture" : {
                    "index" : 1,
                    "texCoord" : 0
                }
            }
        },
        {
            "name" : "sign-recto",
            "pbrMetallicRoughness" : {
                "baseColorTexture" : {
                    "index" : 2,
                    "texCoord" : 0
                }
            }
        }
    ],
    "meshes" : [
        {
            "name" : "Circle.001",
            "primitives" : [
                {
                    "attributes" : {
                        "NORMAL" : 0,
                        "POSITION" : 2,
                        "TEXCOORD_0" : 1
                    },
                    "indices" : 3,
                    "material" : 0
                }
            ]
        },
        {
            "name" : "Circle",
            "primitives" : [
                {
                    "attributes" : {
                        "NORMAL" : 4,
                        "POSITION" : 6,
                        "TEXCOORD_0" : 5
                    },
                    "indices" : 7,
                    "material" : 1
                },
                {
                    "attributes" : {
                        "NORMAL" : 8,
                        "POSITION" : 10,
                        "TEXCOORD_0" : 9
                    },
                    "indices" : 11,
                    "material" : 2
                },
                {
                    "attributes" : {
                        "NORMAL" : 12,
                        "POSITION" : 14,
                        "TEXCOORD_0" : 13
                    },
                    "indices" : 15,
                    "material" : 3
                }
            ]
        }
    ],
    "nodes" : [
        {
            "mesh" : 0,
            "name" : "Circle.001",
            "scale" : [
                0.09175193309783936,
                0.09175193309783936,
                0.09175193309783936
            ]
        },
        {
            "mesh" : 1,
            "name" : "Circle",
            "scale" : [
                0.09175193309783936,
                0.09175193309783936,
                0.09175193309783936
            ]
        }
    ],
    "samplers" : [
        {
            "magFilter" : 9729,
            "minFilter" : 9986,
            "wrapS" : 10497,
            "wrapT" : 10497
        },
        {
            "magFilter" : 9729,
            "minFilter" : 9986,
            "wrapS" : 33071,
            "wrapT" : 33071
        },
        {
            "magFilter" : 9729,
            "minFilter" : 9986,
            "wrapS" : 33071,
            "wrapT" : 33071
        }
    ],
    "scene" : 0,
    "scenes" : [
        {
            "name" : "Scene",
            "nodes" : [
                0,
                1
            ]
        }
    ],
    "textures" : [
        {
            "sampler" : 0,
            "source" : 0
        },
        {
            "sampler" : 1,
            "source" : 1
        },
        {
            "sampler" : 2,
            "source" : 2
        }
    ]
}
