{
    "asset" : {
        "generator" : "Khronos Blender glTF 2.0 I/O",
        "version" : "2.0"
    },
    "scene" : 0,
    "scenes" : [
        {
            "name" : "Scene",
            "nodes" : [
                0
            ]
        }
    ],
    "nodes" : [
        {
            "mesh" : 0,
            "name" : "Circle.001",
            "rotation" : [
                0.7071068286895752,
                0,
                0,
                0.7071067094802856
            ],
            "scale" : [
                0.05704226344823837,
                0.05704226344823837,
                0.05704226344823837
            ]
        }
    ],
    "materials" : [
        {
            "name" : "wood.001",
            "pbrMetallicRoughness" : {
                "baseColorTexture" : {
                    "index" : 0,
                    "texCoord" : 0
                },
                "metallicFactor" : 1,
                "roughnessFactor" : 1
            }
        },
        {
            "name" : "edges",
            "pbrMetallicRoughness" : {
                "baseColorFactor" : [
                    1,
                    1,
                    1,
                    1
                ],
                "metallicFactor" : 1,
                "roughnessFactor" : 1
            }
        },
        {
            "name" : "sign-verso",
            "pbrMetallicRoughness" : {
                "baseColorTexture" : {
                    "index" : 1,
                    "texCoord" : 0
                },
                "metallicFactor" : 1,
                "roughnessFactor" : 1
            }
        },
        {
            "name" : "sign-recto",
            "pbrMetallicRoughness" : {
                "baseColorTexture" : {
                    "index" : 2,
                    "texCoord" : 0
                },
                "metallicFactor" : 1,
                "roughnessFactor" : 1
            }
        }
    ],
    "meshes" : [
        {
            "name" : "Circle.001",
            "primitives" : [
                {
                    "attributes" : {
                        "POSITION" : 0,
                        "NORMAL" : 1,
                        "TEXCOORD_0" : 2
                    },
                    "indices" : 3,
                    "material" : 0
                },
                {
                    "attributes" : {
                        "POSITION" : 4,
                        "NORMAL" : 5,
                        "TEXCOORD_0" : 6
                    },
                    "indices" : 7,
                    "material" : 1
                },
                {
                    "attributes" : {
                        "POSITION" : 8,
                        "NORMAL" : 9,
                        "TEXCOORD_0" : 10
                    },
                    "indices" : 11,
                    "material" : 2
                },
                {
                    "attributes" : {
                        "POSITION" : 12,
                        "NORMAL" : 13,
                        "TEXCOORD_0" : 14
                    },
                    "indices" : 15,
                    "material" : 3
                }
            ]
        }
    ],
    "textures" : [
        {
            "source" : 0
        },
        {
            "source" : 1
        },
        {
            "source" : 2
        }
    ],
    "images" : [
        {
            "bufferView" : 4,
            "mimeType" : "image/png",
            "name" : "Image_0.003"
        },
        {
            "bufferView" : 13,
            "mimeType" : "image/png",
            "name" : "Image_1"
        },
        {
            "bufferView" : 18,
            "mimeType" : "image/png",
            "name" : "Image_2"
        }
    ],
    "accessors" : [
        {
            "bufferView" : 0,
            "componentType" : 5126,
            "count" : 1234,
            "max" : [
                1,
                1,
                0
            ],
            "min" : [
                -1,
                -1,
                -5.707976341247559
            ],
            "type" : "VEC3"
        },
        {
            "bufferView" : 1,
            "componentType" : 5126,
            "count" : 1234,
            "type" : "VEC3"
        },
        {
            "bufferView" : 2,
            "componentType" : 5126,
            "count" : 1234,
            "type" : "VEC2"
        },
        {
            "bufferView" : 3,
            "componentType" : 5123,
            "count" : 2100,
            "type" : "SCALAR"
        },
        {
            "bufferView" : 5,
            "componentType" : 5126,
            "count" : 44,
            "max" : [
                1.6384249925613403,
                0.11460460722446442,
                -5.062867164611816
            ],
            "min" : [
                -1.6384460926055908,
                -0.1216600090265274,
                -7.361416339874268
            ],
            "type" : "VEC3"
        },
        {
            "bufferView" : 6,
            "componentType" : 5126,
            "count" : 44,
            "type" : "VEC3"
        },
        {
            "bufferView" : 7,
            "componentType" : 5126,
            "count" : 44,
            "type" : "VEC2"
        },
        {
            "bufferView" : 8,
            "componentType" : 5123,
            "count" : 108,
            "type" : "SCALAR"
        },
        {
            "bufferView" : 9,
            "componentType" : 5126,
            "count" : 30,
            "max" : [
                1.6318830251693726,
                0.11460460722446442,
                -5.070941925048828
            ],
            "min" : [
                -1.6384460926055908,
                0.07006078213453293,
                -7.361416339874268
            ],
            "type" : "VEC3"
        },
        {
            "bufferView" : 10,
            "componentType" : 5126,
            "count" : 30,
            "type" : "VEC3"
        },
        {
            "bufferView" : 11,
            "componentType" : 5126,
            "count" : 30,
            "type" : "VEC2"
        },
        {
            "bufferView" : 12,
            "componentType" : 5123,
            "count" : 120,
            "type" : "SCALAR"
        },
        {
            "bufferView" : 14,
            "componentType" : 5126,
            "count" : 30,
            "max" : [
                1.6384249925613403,
                -0.07021626830101013,
                -5.062867164611816
            ],
            "min" : [
                -1.6318618059158325,
                -0.1216600090265274,
                -7.353342056274414
            ],
            "type" : "VEC3"
        },
        {
            "bufferView" : 15,
            "componentType" : 5126,
            "count" : 30,
            "type" : "VEC3"
        },
        {
            "bufferView" : 16,
            "componentType" : 5126,
            "count" : 30,
            "type" : "VEC2"
        },
        {
            "bufferView" : 17,
            "componentType" : 5123,
            "count" : 120,
            "type" : "SCALAR"
        }
    ],
    "bufferViews" : [
        {
            "buffer" : 0,
            "byteLength" : 14808,
            "byteOffset" : 0
        },
        {
            "buffer" : 0,
            "byteLength" : 14808,
            "byteOffset" : 14808
        },
        {
            "buffer" : 0,
            "byteLength" : 9872,
            "byteOffset" : 29616
        },
        {
            "buffer" : 0,
            "byteLength" : 4200,
            "byteOffset" : 39488
        },
        {
            "buffer" : 0,
            "byteLength" : 89642,
            "byteOffset" : 43688
        },
        {
            "buffer" : 0,
            "byteLength" : 528,
            "byteOffset" : 133332
        },
        {
            "buffer" : 0,
            "byteLength" : 528,
            "byteOffset" : 133860
        },
        {
            "buffer" : 0,
            "byteLength" : 352,
            "byteOffset" : 134388
        },
        {
            "buffer" : 0,
            "byteLength" : 216,
            "byteOffset" : 134740
        },
        {
            "buffer" : 0,
            "byteLength" : 360,
            "byteOffset" : 134956
        },
        {
            "buffer" : 0,
            "byteLength" : 360,
            "byteOffset" : 135316
        },
        {
            "buffer" : 0,
            "byteLength" : 240,
            "byteOffset" : 135676
        },
        {
            "buffer" : 0,
            "byteLength" : 240,
            "byteOffset" : 135916
        },
        {
            "buffer" : 0,
            "byteLength" : 357841,
            "byteOffset" : 136156
        },
        {
            "buffer" : 0,
            "byteLength" : 360,
            "byteOffset" : 494000
        },
        {
            "buffer" : 0,
            "byteLength" : 360,
            "byteOffset" : 494360
        },
        {
            "buffer" : 0,
            "byteLength" : 240,
            "byteOffset" : 494720
        },
        {
            "buffer" : 0,
            "byteLength" : 240,
            "byteOffset" : 494960
        },
        {
            "buffer" : 0,
            "byteLength" : 196667,
            "byteOffset" : 495200
        }
    ],
    "buffers" : [
        {
            "byteLength" : 691868,
            "uri" : "data:application/octet-stream;base64,"
        }
    ]
}
