{
    "accessors" : [
        {
            "bufferView" : 0,
            "componentType" : 5123,
            "count" : 6,
            "max" : [
                3
            ],
            "min" : [
                0
            ],
            "type" : "SCALAR"
        },
        {
            "bufferView" : 1,
            "componentType" : 5126,
            "count" : 4,
            "max" : [
                7.5,
                0.0,
                5.000000476837158
            ],
            "min" : [
                2.384185791015625e-07,
                0.0,
                -4.999997615814209
            ],
            "type" : "VEC3"
        },
        {
            "bufferView" : 2,
            "componentType" : 5126,
            "count" : 4,
            "max" : [
                0.0,
                -1.0,
                -0.0
            ],
            "min" : [
                0.0,
                -1.0,
                -0.0
            ],
            "type" : "VEC3"
        },
        {
            "bufferView" : 3,
            "componentType" : 5126,
            "count" : 4,
            "max" : [
                0.002578174928203225,
                0.0,
                0.9999966621398926,
                -1.0
            ],
            "min" : [
                0.002578174928203225,
                0.0,
                0.9999966621398926,
                -1.0
            ],
            "type" : "VEC4"
        },
        {
            "bufferView" : 4,
            "componentType" : 5126,
            "count" : 4,
            "max" : [
                0.7520994544029236,
                0.16326802968978882
            ],
            "min" : [
                0.43120402097702026,
                0.0003695487976074219
            ],
            "type" : "VEC2"
        },
        {
            "bufferView" : 5,
            "componentType" : 5123,
            "count" : 66,
            "max" : [
                43
            ],
            "min" : [
                0
            ],
            "type" : "SCALAR"
        },
        {
            "bufferView" : 6,
            "componentType" : 5126,
            "count" : 44,
            "max" : [
                3.75,
                7.5,
                9.99850082397461
            ],
            "min" : [
                -3.75,
                -7.5,
                -4.999999523162842
            ],
            "type" : "VEC3"
        },
        {
            "bufferView" : 7,
            "componentType" : 5126,
            "count" : 44,
            "max" : [
                1.0,
                1.0,
                1.0
            ],
            "min" : [
                -1.0,
                -1.0,
                -1.0
            ],
            "type" : "VEC3"
        },
        {
            "bufferView" : 8,
            "componentType" : 5126,
            "count" : 44,
            "max" : [
                0.9999997615814209,
                0.9999997615814209,
                0.9999997019767761,
                -1.0
            ],
            "min" : [
                -0.8585415482521057,
                -0.9999903440475464,
                -0.9999650716781616,
                -1.0
            ],
            "type" : "VEC4"
        },
        {
            "bufferView" : 9,
            "componentType" : 5126,
            "count" : 44,
            "max" : [
                0.9992014169692993,
                0.997691486729309
            ],
            "min" : [
                0.0032654106616973877,
                0.00011217594146728516
            ],
            "type" : "VEC2"
        },
        {
            "bufferView" : 10,
            "componentType" : 5123,
            "count" : 6,
            "max" : [
                3
            ],
            "min" : [
                0
            ],
            "type" : "SCALAR"
        },
        {
            "bufferView" : 11,
            "componentType" : 5126,
            "count" : 4,
            "max" : [
                7.5,
                0.0,
                5.000000476837158
            ],
            "min" : [
                2.384185791015625e-07,
                0.0,
                -4.999997615814209
            ],
            "type" : "VEC3"
        },
        {
            "bufferView" : 12,
            "componentType" : 5126,
            "count" : 4,
            "max" : [
                0.0,
                1.0,
                0.0
            ],
            "min" : [
                0.0,
                1.0,
                0.0
            ],
            "type" : "VEC3"
        },
        {
            "bufferView" : 13,
            "componentType" : 5126,
            "count" : 4,
            "max" : [
                0.0025782021693885326,
                0.0,
                0.9999966621398926,
                1.0
            ],
            "min" : [
                0.0025782021693885326,
                0.0,
                0.9999966621398926,
                1.0
            ],
            "type" : "VEC4"
        },
        {
            "bufferView" : 14,
            "componentType" : 5126,
            "count" : 4,
            "max" : [
                0.7520994544029236,
                0.16326802968978882
            ],
            "min" : [
                0.43120402097702026,
                0.0003695487976074219
            ],
            "type" : "VEC2"
        },
        {
            "bufferView" : 15,
            "componentType" : 5123,
            "count" : 66,
            "max" : [
                43
            ],
            "min" : [
                0
            ],
            "type" : "SCALAR"
        },
        {
            "bufferView" : 16,
            "componentType" : 5126,
            "count" : 44,
            "max" : [
                3.75,
                7.5,
                9.99850082397461
            ],
            "min" : [
                -3.75,
                -7.5,
                -4.999999523162842
            ],
            "type" : "VEC3"
        },
        {
            "bufferView" : 17,
            "componentType" : 5126,
            "count" : 44,
            "max" : [
                1.0,
                1.0,
                1.0
            ],
            "min" : [
                -1.0,
                -1.0,
                -1.0
            ],
            "type" : "VEC3"
        },
        {
            "bufferView" : 18,
            "componentType" : 5126,
            "count" : 44,
            "max" : [
                0.9999868273735046,
                0.9999998211860657,
                0.999947190284729,
                1.0
            ],
            "min" : [
                -0.8585413098335266,
                -0.9999903440475464,
                -0.9999834895133972,
                1.0
            ],
            "type" : "VEC4"
        },
        {
            "bufferView" : 19,
            "componentType" : 5126,
            "count" : 44,
            "max" : [
                0.9968761205673218,
                0.997691486729309
            ],
            "min" : [
                0.0032654106616973877,
                0.15285146236419678
            ],
            "type" : "VEC2"
        },
        {
            "bufferView" : 20,
            "componentType" : 5126,
            "count" : 1,
            "max" : [
                0.0
            ],
            "min" : [
                0.0
            ],
            "type" : "SCALAR"
        },
        {
            "bufferView" : 21,
            "componentType" : 5126,
            "count" : 1,
            "max" : [
                0.0,
                0.0,
                -1.0,
                4.371138828673793e-08
            ],
            "min" : [
                0.0,
                0.0,
                -1.0,
                4.371138828673793e-08
            ],
            "type" : "VEC4"
        },
        {
            "bufferView" : 22,
            "componentType" : 5126,
            "count" : 60,
            "max" : [
                2.4583333333333335
            ],
            "min" : [
                0.0
            ],
            "type" : "SCALAR"
        },
        {
            "bufferView" : 23,
            "componentType" : 5126,
            "count" : 60,
            "max" : [
                0.0,
                0.0,
                0.9999314546585083,
                1.0
            ],
            "min" : [
                0.0,
                0.0,
                -1.0,
                -0.005152158904820681
            ],
            "type" : "VEC4"
        },
        {
            "bufferView" : 24,
            "componentType" : 5126,
            "count" : 1,
            "max" : [
                0.0
            ],
            "min" : [
                0.0
            ],
            "type" : "SCALAR"
        },
        {
            "bufferView" : 25,
            "componentType" : 5126,
            "count" : 1,
            "max" : [
                0.0,
                0.0,
                -0.0,
                1.0
            ],
            "min" : [
                0.0,
                0.0,
                -0.0,
                1.0
            ],
            "type" : "VEC4"
        },
        {
            "bufferView" : 26,
            "componentType" : 5126,
            "count" : 60,
            "max" : [
                2.4583333333333335
            ],
            "min" : [
                0.0
            ],
            "type" : "SCALAR"
        },
        {
            "bufferView" : 27,
            "componentType" : 5126,
            "count" : 60,
            "max" : [
                0.0,
                0.0,
                0.9999426603317261,
                1.0
            ],
            "min" : [
                0.0,
                0.0,
                -1.0,
                -0.0047106132842600346
            ],
            "type" : "VEC4"
        }
    ],
    "animations" : [
        {
            "channels" : [
                {
                    "sampler" : 0,
                    "target" : {
                        "node" : 2,
                        "path" : "rotation"
                    }
                }
            ],
            "name" : "opening",
            "samplers" : [
                {
                    "input" : 26,
                    "interpolation" : "LINEAR",
                    "output" : 27
                }
            ]
        },
        {
            "channels" : [
                {
                    "sampler" : 0,
                    "target" : {
                        "node" : 2,
                        "path" : "rotation"
                    }
                }
            ],
            "name" : "open",
            "samplers" : [
                {
                    "input" : 20,
                    "interpolation" : "LINEAR",
                    "output" : 21
                }
            ]
        },
        {
            "channels" : [
                {
                    "sampler" : 0,
                    "target" : {
                        "node" : 2,
                        "path" : "rotation"
                    }
                }
            ],
            "name" : "closing",
            "samplers" : [
                {
                    "input" : 22,
                    "interpolation" : "LINEAR",
                    "output" : 23
                }
            ]
        },
        {
            "channels" : [
                {
                    "sampler" : 0,
                    "target" : {
                        "node" : 2,
                        "path" : "rotation"
                    }
                }
            ],
            "name" : "closed",
            "samplers" : [
                {
                    "input" : 24,
                    "interpolation" : "LINEAR",
                    "output" : 25
                }
            ]
        }
    ],
    "asset" : {
        "generator" : "Khronos Blender glTF 2.0 exporter",
        "version" : "2.0"
    },
    "bufferViews" : [
        {
            "buffer" : 0,
            "byteLength" : 12,
            "byteOffset" : 0,
            "target" : 34963
        },
        {
            "buffer" : 0,
            "byteLength" : 48,
            "byteOffset" : 12,
            "target" : 34962
        },
        {
            "buffer" : 0,
            "byteLength" : 48,
            "byteOffset" : 60,
            "target" : 34962
        },
        {
            "buffer" : 0,
            "byteLength" : 64,
            "byteOffset" : 108,
            "target" : 34962
        },
        {
            "buffer" : 0,
            "byteLength" : 32,
            "byteOffset" : 172,
            "target" : 34962
        },
        {
            "buffer" : 0,
            "byteLength" : 132,
            "byteOffset" : 204,
            "target" : 34963
        },
        {
            "buffer" : 0,
            "byteLength" : 528,
            "byteOffset" : 336,
            "target" : 34962
        },
        {
            "buffer" : 0,
            "byteLength" : 528,
            "byteOffset" : 864,
            "target" : 34962
        },
        {
            "buffer" : 0,
            "byteLength" : 704,
            "byteOffset" : 1392,
            "target" : 34962
        },
        {
            "buffer" : 0,
            "byteLength" : 352,
            "byteOffset" : 2096,
            "target" : 34962
        },
        {
            "buffer" : 0,
            "byteLength" : 12,
            "byteOffset" : 2448,
            "target" : 34963
        },
        {
            "buffer" : 0,
            "byteLength" : 48,
            "byteOffset" : 2460,
            "target" : 34962
        },
        {
            "buffer" : 0,
            "byteLength" : 48,
            "byteOffset" : 2508,
            "target" : 34962
        },
        {
            "buffer" : 0,
            "byteLength" : 64,
            "byteOffset" : 2556,
            "target" : 34962
        },
        {
            "buffer" : 0,
            "byteLength" : 32,
            "byteOffset" : 2620,
            "target" : 34962
        },
        {
            "buffer" : 0,
            "byteLength" : 132,
            "byteOffset" : 2652,
            "target" : 34963
        },
        {
            "buffer" : 0,
            "byteLength" : 528,
            "byteOffset" : 2784,
            "target" : 34962
        },
        {
            "buffer" : 0,
            "byteLength" : 528,
            "byteOffset" : 3312,
            "target" : 34962
        },
        {
            "buffer" : 0,
            "byteLength" : 704,
            "byteOffset" : 3840,
            "target" : 34962
        },
        {
            "buffer" : 0,
            "byteLength" : 352,
            "byteOffset" : 4544,
            "target" : 34962
        },
        {
            "buffer" : 0,
            "byteLength" : 4,
            "byteOffset" : 4896
        },
        {
            "buffer" : 0,
            "byteLength" : 16,
            "byteOffset" : 4900
        },
        {
            "buffer" : 0,
            "byteLength" : 240,
            "byteOffset" : 4916
        },
        {
            "buffer" : 0,
            "byteLength" : 960,
            "byteOffset" : 5156
        },
        {
            "buffer" : 0,
            "byteLength" : 4,
            "byteOffset" : 6116
        },
        {
            "buffer" : 0,
            "byteLength" : 16,
            "byteOffset" : 6120
        },
        {
            "buffer" : 0,
            "byteLength" : 240,
            "byteOffset" : 6136
        },
        {
            "buffer" : 0,
            "byteLength" : 960,
            "byteOffset" : 6376
        }
    ],
    "buffers" : [
        {
            "byteLength" : 7336,
            "uri" : "data:application/octet-stream;base64,"
        }
    ],
    "images" : [
        {
            "mimeType" : "image/jpeg",
            "name" : "aw_tex@2x.jpg",
            "uri" : "data:image/jpeg;base64,"
        }
    ],
    "materials" : [
        {
            "name" : "Material",
            "pbrMetallicRoughness" : {
                "baseColorTexture" : {
                    "index" : 0
                },
                "metallicFactor" : 0.0
            }
        }
    ],
    "meshes" : [
        {
            "name" : "Cube.002",
            "primitives" : [
                {
                    "attributes" : {
                        "NORMAL" : 2,
                        "POSITION" : 1,
                        "TANGENT" : 3,
                        "TEXCOORD_0" : 4
                    },
                    "indices" : 0,
                    "material" : 0
                }
            ]
        },
        {
            "name" : "Cube.003",
            "primitives" : [
                {
                    "attributes" : {
                        "NORMAL" : 7,
                        "POSITION" : 6,
                        "TANGENT" : 8,
                        "TEXCOORD_0" : 9
                    },
                    "indices" : 5,
                    "material" : 0
                }
            ]
        },
        {
            "name" : "Cube.001",
            "primitives" : [
                {
                    "attributes" : {
                        "NORMAL" : 12,
                        "POSITION" : 11,
                        "TANGENT" : 13,
                        "TEXCOORD_0" : 14
                    },
                    "indices" : 10,
                    "material" : 0
                }
            ]
        },
        {
            "name" : "Cube",
            "primitives" : [
                {
                    "attributes" : {
                        "NORMAL" : 17,
                        "POSITION" : 16,
                        "TANGENT" : 18,
                        "TEXCOORD_0" : 19
                    },
                    "indices" : 15,
                    "material" : 0
                }
            ]
        }
    ],
    "nodes" : [
        {
            "name" : "Camera",
            "rotation" : [
                0.483536034822464,
                0.33687159419059753,
                -0.20870360732078552,
                0.7804827094078064
            ],
            "translation" : [
                7.481131553649902,
                5.34366512298584,
                6.5076398849487305
            ]
        },
        {
            "children" : [
                4
            ],
            "mesh" : 3,
            "name" : "Cube"
        },
        {
            "children" : [
                3
            ],
            "mesh" : 2,
            "name" : "Cube.001",
            "translation" : [
                -3.75,
                7.5,
                -0.0
            ]
        },
        {
            "mesh" : 0,
            "name" : "Cube.002",
            "translation" : [
                -4.76837158203125e-07,
                9.5367431640625e-07,
                -0.0
            ]
        },
        {
            "mesh" : 1,
            "name" : "Cube.003"
        },
        {
            "name" : "Lamp",
            "rotation" : [
                0.16907575726509094,
                0.7558802962303162,
                -0.27217137813568115,
                0.570947527885437
            ],
            "scale" : [
                1.0,
                1.0,
                0.9999999403953552
            ],
            "translation" : [
                4.076245307922363,
                5.903861999511719,
                -1.0054539442062378
            ]
        }
    ],
    "samplers" : [
        {}
    ],
    "scene" : 0,
    "scenes" : [
        {
            "name" : "Scene",
            "nodes" : [
                2,
                1,
                5,
                0
            ]
        }
    ],
    "textures" : [
        {
            "sampler" : 0,
            "source" : 0
        }
    ]
}
