{
    "accessors" : [
        {
            "bufferView" : 0,
            "componentType" : 5123,
            "count" : 39,
            "max" : [
                26
            ],
            "min" : [
                0
            ],
            "type" : "SCALAR"
        },
        {
            "bufferView" : 1,
            "componentType" : 5126,
            "count" : 27,
            "max" : [
                1.7199797630310059,
                1.3767027854919434,
                1.0000005960464478
            ],
            "min" : [
                -1.0000003576278687,
                -1.0,
                -1.0000003576278687
            ],
            "type" : "VEC3"
        },
        {
            "bufferView" : 2,
            "componentType" : 5126,
            "count" : 27,
            "max" : [
                1.0,
                2.086162567138672e-07,
                1.0
            ],
            "min" : [
                -1.0,
                -1.0,
                -1.0
            ],
            "type" : "VEC3"
        },
        {
            "bufferView" : 3,
            "componentType" : 5126,
            "count" : 27,
            "max" : [
                0.015177183784544468,
                0.9998568892478943,
                0.9999999403953552,
                1.0
            ],
            "min" : [
                -0.016919773072004318,
                -0.999884843826294,
                -1.0,
                1.0
            ],
            "type" : "VEC4"
        },
        {
            "bufferView" : 4,
            "componentType" : 5126,
            "count" : 27,
            "max" : [
                0.9927725791931152,
                0.8127298802137375
            ],
            "min" : [
                0.0055578844621777534,
                0.02596646547317505
            ],
            "type" : "VEC2"
        },
        {
            "bufferView" : 5,
            "componentType" : 5123,
            "count" : 18,
            "max" : [
                11
            ],
            "min" : [
                0
            ],
            "type" : "SCALAR"
        },
        {
            "bufferView" : 6,
            "componentType" : 5126,
            "count" : 12,
            "max" : [
                1.0000004768371582,
                1.450403094291687,
                1.0000005960464478
            ],
            "min" : [
                -1.0000003576278687,
                1.0,
                -1.0
            ],
            "type" : "VEC3"
        },
        {
            "bufferView" : 7,
            "componentType" : 5126,
            "count" : 12,
            "max" : [
                0.4106702506542206,
                -0.9117838740348816,
                1.2227975787482137e-07
            ],
            "min" : [
                -0.41067034006118774,
                -1.0,
                -1.9700628683949617e-07
            ],
            "type" : "VEC3"
        },
        {
            "bufferView" : 8,
            "componentType" : 5126,
            "count" : 12,
            "max" : [
                0.03736436367034912,
                0.016829153522849083,
                0.9999826550483704,
                -1.0
            ],
            "min" : [
                0.005895738024264574,
                -0.0034880065359175205,
                -0.9999639987945557,
                -1.0
            ],
            "type" : "VEC4"
        },
        {
            "bufferView" : 9,
            "componentType" : 5126,
            "count" : 12,
            "max" : [
                0.5965865254402161,
                0.9110477566719055
            ],
            "min" : [
                0.4066498279571533,
                0.4963216781616211
            ],
            "type" : "VEC2"
        },
        {
            "bufferView" : 10,
            "componentType" : 5123,
            "count" : 39,
            "max" : [
                26
            ],
            "min" : [
                0
            ],
            "type" : "SCALAR"
        },
        {
            "bufferView" : 11,
            "componentType" : 5126,
            "count" : 27,
            "max" : [
                1.7199797630310059,
                1.3767027854919434,
                1.0000005960464478
            ],
            "min" : [
                -1.0000003576278687,
                -1.0,
                -1.0000003576278687
            ],
            "type" : "VEC3"
        },
        {
            "bufferView" : 12,
            "componentType" : 5126,
            "count" : 27,
            "max" : [
                1.0,
                1.0,
                1.0
            ],
            "min" : [
                -1.0,
                -2.086162567138672e-07,
                -1.0
            ],
            "type" : "VEC3"
        },
        {
            "bufferView" : 13,
            "componentType" : 5126,
            "count" : 27,
            "max" : [
                0.015177183784544468,
                0.9998568892478943,
                1.0,
                -1.0
            ],
            "min" : [
                -0.016919773072004318,
                -0.999884843826294,
                -1.0,
                -1.0
            ],
            "type" : "VEC4"
        },
        {
            "bufferView" : 14,
            "componentType" : 5126,
            "count" : 27,
            "max" : [
                0.9927725791931152,
                0.8127298802137375
            ],
            "min" : [
                0.0055578844621777534,
                0.02596646547317505
            ],
            "type" : "VEC2"
        },
        {
            "bufferView" : 15,
            "componentType" : 5123,
            "count" : 18,
            "max" : [
                11
            ],
            "min" : [
                0
            ],
            "type" : "SCALAR"
        },
        {
            "bufferView" : 16,
            "componentType" : 5126,
            "count" : 12,
            "max" : [
                2.0000009536743164,
                0.450403094291687,
                1.0000005960464478
            ],
            "min" : [
                1.1920928955078125e-07,
                0.0,
                -1.0
            ],
            "type" : "VEC3"
        },
        {
            "bufferView" : 17,
            "componentType" : 5126,
            "count" : 12,
            "max" : [
                0.41067034006118774,
                1.0,
                1.9700628683949617e-07
            ],
            "min" : [
                -0.4106702506542206,
                0.9117838740348816,
                -1.1548643641390299e-07
            ],
            "type" : "VEC3"
        },
        {
            "bufferView" : 18,
            "componentType" : 5126,
            "count" : 12,
            "max" : [
                0.03736438229680061,
                0.01682916283607483,
                0.9999826550483704,
                1.0
            ],
            "min" : [
                0.005895734298974276,
                -0.0034880079329013824,
                -0.9999639987945557,
                1.0
            ],
            "type" : "VEC4"
        },
        {
            "bufferView" : 19,
            "componentType" : 5126,
            "count" : 12,
            "max" : [
                0.5965865254402161,
                0.9110477566719055
            ],
            "min" : [
                0.4066498279571533,
                0.4963216781616211
            ],
            "type" : "VEC2"
        },
        {
            "bufferView" : 20,
            "componentType" : 5126,
            "count" : 1,
            "max" : [
                0.0
            ],
            "min" : [
                0.0
            ],
            "type" : "SCALAR"
        },
        {
            "bufferView" : 21,
            "componentType" : 5126,
            "count" : 1,
            "max" : [
                0.0,
                0.0,
                -1.0,
                4.371138828673793e-08
            ],
            "min" : [
                0.0,
                0.0,
                -1.0,
                4.371138828673793e-08
            ],
            "type" : "VEC4"
        },
        {
            "bufferView" : 22,
            "componentType" : 5126,
            "count" : 60,
            "max" : [
                2.4583333333333335
            ],
            "min" : [
                0.0
            ],
            "type" : "SCALAR"
        },
        {
            "bufferView" : 23,
            "componentType" : 5126,
            "count" : 60,
            "max" : [
                0.0,
                0.0,
                0.9999314546585083,
                1.0
            ],
            "min" : [
                0.0,
                0.0,
                -1.0,
                -0.005152158904820681
            ],
            "type" : "VEC4"
        },
        {
            "bufferView" : 24,
            "componentType" : 5126,
            "count" : 1,
            "max" : [
                0.0
            ],
            "min" : [
                0.0
            ],
            "type" : "SCALAR"
        },
        {
            "bufferView" : 25,
            "componentType" : 5126,
            "count" : 1,
            "max" : [
                0.0,
                0.0,
                -0.0,
                1.0
            ],
            "min" : [
                0.0,
                0.0,
                -0.0,
                1.0
            ],
            "type" : "VEC4"
        },
        {
            "bufferView" : 26,
            "componentType" : 5126,
            "count" : 60,
            "max" : [
                2.4583333333333335
            ],
            "min" : [
                0.0
            ],
            "type" : "SCALAR"
        },
        {
            "bufferView" : 27,
            "componentType" : 5126,
            "count" : 60,
            "max" : [
                0.0,
                0.0,
                0.9999426603317261,
                1.0
            ],
            "min" : [
                0.0,
                0.0,
                -1.0,
                -0.0047106132842600346
            ],
            "type" : "VEC4"
        }
    ],
    "animations" : [
        {
            "channels" : [
                {
                    "sampler" : 0,
                    "target" : {
                        "node" : 2,
                        "path" : "rotation"
                    }
                }
            ],
            "name" : "open",
            "samplers" : [
                {
                    "input" : 20,
                    "interpolation" : "LINEAR",
                    "output" : 21
                }
            ]
        },
        {
            "channels" : [
                {
                    "sampler" : 0,
                    "target" : {
                        "node" : 2,
                        "path" : "rotation"
                    }
                }
            ],
            "name" : "closing",
            "samplers" : [
                {
                    "input" : 22,
                    "interpolation" : "LINEAR",
                    "output" : 23
                }
            ]
        },
        {
            "channels" : [
                {
                    "sampler" : 0,
                    "target" : {
                        "node" : 2,
                        "path" : "rotation"
                    }
                }
            ],
            "name" : "opening",
            "samplers" : [
                {
                    "input" : 26,
                    "interpolation" : "LINEAR",
                    "output" : 27
                }
            ]
        },
        {
            "channels" : [
                {
                    "sampler" : 0,
                    "target" : {
                        "node" : 2,
                        "path" : "rotation"
                    }
                }
            ],
            "name" : "closed",
            "samplers" : [
                {
                    "input" : 24,
                    "interpolation" : "LINEAR",
                    "output" : 25
                }
            ]
        }
    ],
    "asset" : {
        "generator" : "Khronos Blender glTF 2.0 exporter",
        "version" : "2.0"
    },
    "bufferViews" : [
        {
            "buffer" : 0,
            "byteLength" : 78,
            "byteOffset" : 0,
            "target" : 34963
        },
        {
            "buffer" : 0,
            "byteLength" : 324,
            "byteOffset" : 80,
            "target" : 34962
        },
        {
            "buffer" : 0,
            "byteLength" : 324,
            "byteOffset" : 404,
            "target" : 34962
        },
        {
            "buffer" : 0,
            "byteLength" : 432,
            "byteOffset" : 728,
            "target" : 34962
        },
        {
            "buffer" : 0,
            "byteLength" : 216,
            "byteOffset" : 1160,
            "target" : 34962
        },
        {
            "buffer" : 0,
            "byteLength" : 36,
            "byteOffset" : 1376,
            "target" : 34963
        },
        {
            "buffer" : 0,
            "byteLength" : 144,
            "byteOffset" : 1412,
            "target" : 34962
        },
        {
            "buffer" : 0,
            "byteLength" : 144,
            "byteOffset" : 1556,
            "target" : 34962
        },
        {
            "buffer" : 0,
            "byteLength" : 192,
            "byteOffset" : 1700,
            "target" : 34962
        },
        {
            "buffer" : 0,
            "byteLength" : 96,
            "byteOffset" : 1892,
            "target" : 34962
        },
        {
            "buffer" : 0,
            "byteLength" : 78,
            "byteOffset" : 1988,
            "target" : 34963
        },
        {
            "buffer" : 0,
            "byteLength" : 324,
            "byteOffset" : 2068,
            "target" : 34962
        },
        {
            "buffer" : 0,
            "byteLength" : 324,
            "byteOffset" : 2392,
            "target" : 34962
        },
        {
            "buffer" : 0,
            "byteLength" : 432,
            "byteOffset" : 2716,
            "target" : 34962
        },
        {
            "buffer" : 0,
            "byteLength" : 216,
            "byteOffset" : 3148,
            "target" : 34962
        },
        {
            "buffer" : 0,
            "byteLength" : 36,
            "byteOffset" : 3364,
            "target" : 34963
        },
        {
            "buffer" : 0,
            "byteLength" : 144,
            "byteOffset" : 3400,
            "target" : 34962
        },
        {
            "buffer" : 0,
            "byteLength" : 144,
            "byteOffset" : 3544,
            "target" : 34962
        },
        {
            "buffer" : 0,
            "byteLength" : 192,
            "byteOffset" : 3688,
            "target" : 34962
        },
        {
            "buffer" : 0,
            "byteLength" : 96,
            "byteOffset" : 3880,
            "target" : 34962
        },
        {
            "buffer" : 0,
            "byteLength" : 4,
            "byteOffset" : 3976
        },
        {
            "buffer" : 0,
            "byteLength" : 16,
            "byteOffset" : 3980
        },
        {
            "buffer" : 0,
            "byteLength" : 240,
            "byteOffset" : 3996
        },
        {
            "buffer" : 0,
            "byteLength" : 960,
            "byteOffset" : 4236
        },
        {
            "buffer" : 0,
            "byteLength" : 4,
            "byteOffset" : 5196
        },
        {
            "buffer" : 0,
            "byteLength" : 16,
            "byteOffset" : 5200
        },
        {
            "buffer" : 0,
            "byteLength" : 240,
            "byteOffset" : 5216
        },
        {
            "buffer" : 0,
            "byteLength" : 960,
            "byteOffset" : 5456
        }
    ],
    "buffers" : [
        {
            "byteLength" : 6416,
            "uri" : "data:application/octet-stream;base64,"
        }
    ],
    "images" : [
        {
            "mimeType" : "image/jpeg",
            "name" : "rmj_tex@2x",
            "uri" : "data:image/jpeg;base64,"
        }
    ],
    "materials" : [
        {
            "name" : "Material",
            "pbrMetallicRoughness" : {
                "baseColorTexture" : {
                    "index" : 0
                },
                "metallicFactor" : 0.0
            }
        }
    ],
    "meshes" : [
        {
            "name" : "Cube",
            "primitives" : [
                {
                    "attributes" : {
                        "NORMAL" : 2,
                        "POSITION" : 1,
                        "TANGENT" : 3,
                        "TEXCOORD_0" : 4
                    },
                    "indices" : 0,
                    "material" : 0
                }
            ]
        },
        {
            "name" : "Cube.002",
            "primitives" : [
                {
                    "attributes" : {
                        "NORMAL" : 7,
                        "POSITION" : 6,
                        "TANGENT" : 8,
                        "TEXCOORD_0" : 9
                    },
                    "indices" : 5,
                    "material" : 0
                }
            ]
        },
        {
            "name" : "Cube.003",
            "primitives" : [
                {
                    "attributes" : {
                        "NORMAL" : 12,
                        "POSITION" : 11,
                        "TANGENT" : 13,
                        "TEXCOORD_0" : 14
                    },
                    "indices" : 10,
                    "material" : 0
                }
            ]
        },
        {
            "name" : "Cube.001",
            "primitives" : [
                {
                    "attributes" : {
                        "NORMAL" : 17,
                        "POSITION" : 16,
                        "TANGENT" : 18,
                        "TEXCOORD_0" : 19
                    },
                    "indices" : 15,
                    "material" : 0
                }
            ]
        }
    ],
    "nodes" : [
        {
            "name" : "Camera",
            "rotation" : [
                0.483536034822464,
                0.33687159419059753,
                -0.20870360732078552,
                0.7804827094078064
            ],
            "translation" : [
                7.481131553649902,
                5.34366512298584,
                6.5076398849487305
            ]
        },
        {
            "children" : [
                4
            ],
            "mesh" : 0,
            "name" : "Cube",
            "scale" : [
                3.7499983310699463,
                7.5,
                4.999997615814209
            ]
        },
        {
            "children" : [
                3
            ],
            "mesh" : 3,
            "name" : "Cube.001",
            "rotation" : [
                0.0,
                0.0,
                -1.0,
                4.371139183945161e-08
            ],
            "scale" : [
                3.7499983310699463,
                7.5,
                4.999997615814209
            ],
            "translation" : [
                -3.75,
                7.5,
                -0.0
            ]
        },
        {
            "mesh" : 1,
            "name" : "Cube.002",
            "rotation" : [
                0.0,
                0.0,
                -1.7011817732281997e-08,
                1.0
            ],
            "scale" : [
                1.0,
                0.9999999403953552,
                1.0
            ],
            "translation" : [
                1.0000007152557373,
                -1.0,
                -0.0
            ]
        },
        {
            "mesh" : 2,
            "name" : "Cube.003"
        },
        {
            "name" : "Lamp",
            "rotation" : [
                0.16907575726509094,
                0.7558802962303162,
                -0.27217137813568115,
                0.570947527885437
            ],
            "scale" : [
                1.0,
                1.0,
                0.9999999403953552
            ],
            "translation" : [
                4.076245307922363,
                5.903861999511719,
                -1.0054539442062378
            ]
        }
    ],
    "samplers" : [
        {}
    ],
    "scene" : 0,
    "scenes" : [
        {
            "name" : "Scene",
            "nodes" : [
                2,
                1,
                5,
                0
            ]
        }
    ],
    "textures" : [
        {
            "sampler" : 0,
            "source" : 0
        }
    ]
}
